<svg xmlns="http://www.w3.org/2000/svg" width="1200" height="800" viewBox="0 0 1200 800" role="img" aria-label="Shanghai Disney placeholder image">
  <defs><linearGradient id="g" x1="0" x2="1" y1="0" y2="1"><stop offset="0%" stop-color="#5b21b6"/><stop offset="100%" stop-color="#ec4899"/></linearGradient></defs>
  <rect width="1200" height="800" fill="url(#g)"/>
  <circle cx="130" cy="120" r="230" fill="white" opacity="0.12"/>
  <circle cx="1040" cy="690" r="300" fill="white" opacity="0.10"/>
  <g opacity="0.22" fill="white">
    <rect x="90" y="530" width="50" height="140"/><rect x="170" y="460" width="55" height="210"/><rect x="260" y="500" width="45" height="170"/><rect x="350" y="420" width="65" height="250"/><rect x="460" y="480" width="55" height="190"/><rect x="560" y="390" width="70" height="280"/><rect x="680" y="500" width="50" height="170"/><rect x="770" y="450" width="55" height="220"/><rect x="870" y="520" width="50" height="150"/><rect x="970" y="430" width="70" height="240"/>
  </g>
  <rect x="0" y="300" width="1200" height="200" fill="black" opacity="0.45"/>
  <text x="600" y="385" font-family="Arial, Helvetica, sans-serif" font-size="58" font-weight="700" text-anchor="middle" fill="white">Shanghai Disney</text>
  <text x="600" y="440" font-family="Arial, Helvetica, sans-serif" font-size="28" text-anchor="middle" fill="#eeeeee">Placeholder image - replace with your own photo</text>
</svg>
